<?xml version="1.0" encoding="UTF-8" standalone="no"?>
<svg
   width="500"
   height="300"
   viewBox="0 0 500 300"
   version="1.1"
   id="svg16"
   sodipodi:docname="4iG_logo.svg"
   inkscape:version="1.2.1 (9c6d41e410, 2022-07-14)"
   xmlns:inkscape="http://www.inkscape.org/namespaces/inkscape"
   xmlns:sodipodi="http://sodipodi.sourceforge.net/DTD/sodipodi-0.dtd"
   xmlns="http://www.w3.org/2000/svg"
   xmlns:svg="http://www.w3.org/2000/svg"
   xmlns:rdf="http://www.w3.org/1999/02/22-rdf-syntax-ns#"
   xmlns:cc="http://creativecommons.org/ns#"
   xmlns:dc="http://purl.org/dc/elements/1.1/">
  <defs
     id="defs20" />
  <sodipodi:namedview
     id="namedview18"
     pagecolor="#ffffff"
     bordercolor="#000000"
     borderopacity="0.25"
     inkscape:showpageshadow="2"
     inkscape:pageopacity="0.0"
     inkscape:pagecheckerboard="0"
     inkscape:deskcolor="#d1d1d1"
     showgrid="false"
     inkscape:zoom="0.78671132"
     inkscape:cx="205.28496"
     inkscape:cy="186.8538"
     inkscape:window-width="1440"
     inkscape:window-height="837"
     inkscape:window-x="-8"
     inkscape:window-y="-8"
     inkscape:window-maximized="1"
     inkscape:current-layer="Layer_1-2-2" />
  <title
     id="title2">Asset 1</title>
  <g
     id="Layer_1-2-2"
     data-name="Layer 1-2">
    <g
       id="g371"
       transform="matrix(4.3748663,0,0,4.3748663,-121.86817,-41.661361)">
      <path
         d="m 74.35,28.74 a 5.67,5.67 0 0 1 -1.66,-4.23 5.68,5.68 0 0 1 1.66,-4.27 6.33,6.33 0 0 1 8.46,0 5.68,5.68 0 0 1 1.66,4.27 5.78,5.78 0 0 1 -1.66,4.2 6.19,6.19 0 0 1 -8.46,0 z"
         style="fill:#1e9dd9"
         id="path6" />
      <path
         d="M 83.77,35.24 A 0.76,0.76 0 0 0 83.2,35 H 73.8 A 0.76,0.76 0 0 0 73.23,35.24 0.83,0.83 0 0 0 73,35.82 v 9.84 A 0.34,0.34 0 0 1 72.66,46 H 58.57 a 0.22,0.22 0 0 1 -0.2,-0.14 0.26,0.26 0 0 1 0,-0.27 L 69.17,21 c 0.13,-0.32 0.15,-0.56 0,-0.72 A 0.75,0.75 0 0 0 68.52,20.04 H 58 a 1,1 0 0 0 -1,0.62 L 45.21,47.5 a 3.43,3.43 0 0 0 -0.21,1 v 6.65 a 0.78,0.78 0 0 0 0.24,0.58 0.82,0.82 0 0 0 0.59,0.24 H 72.66 A 0.34,0.34 0 0 1 73,56.31 v 2.94 A 9.72,9.72 0 0 0 82.69,69 H 83.2 A 0.76,0.76 0 0 0 83.77,68.76 0.83,0.83 0 0 0 84,68.18 V 35.82 a 0.83,0.83 0 0 0 -0.23,-0.58 z"
         style="fill:#3d3d3f"
         id="path8" />
      <path
         d="M 97.31,66.29 A 15.72,15.72 0 0 1 90.94,60.19 14.9,14.9 0 0 1 89,51.12 V 37.24 a 14.76,14.76 0 0 1 1.94,-9 15.77,15.77 0 0 1 6.37,-6.07 20.18,20.18 0 0 1 9.52,-2.17 21,21 0 0 1 9.48,2 15.7,15.7 0 0 1 6.4,5.66 14.74,14.74 0 0 1 2.29,8 V 36 a 0.82,0.82 0 0 1 -0.26,0.57 c -0.16,0.16 -0.58,0.48 -0.58,0.48 h -9.55 A 0.81,0.81 0 0 1 113.8,36.34 7.75,7.75 0 0 0 112.37,32.22 7.38,7.38 0 0 0 102,31.84 l -0.06,0.06 A 7.47,7.47 0 0 0 100,37.14 V 51.7 a 7,7 0 0 0 2.1,5.3 7.27,7.27 0 0 0 5.27,2 7,7 0 0 0 4.8,-1.59 A 5.58,5.58 0 0 0 114,53 V 50.34 A 0.34,0.34 0 0 0 113.66,50 h -6.84 A 0.78,0.78 0 0 1 106.24,49.76 0.73,0.73 0 0 1 106,49.19 v -7.38 a 0.73,0.73 0 0 1 0.24,-0.57 0.78,0.78 0 0 1 0.58,-0.24 h 17.34 c 0,0 0.42,0.51 0.58,0.67 a 0.84,0.84 0 0 1 0.26,0.58 v 9.21 a 17.5,17.5 0 0 1 -2.29,8.94 15.41,15.41 0 0 1 -6.37,6 20.62,20.62 0 0 1 -9.51,2.1 20,20 0 0 1 -9.52,-2.21 z"
         style="fill:#3d3d3f"
         id="path10" />
    </g>
  </g>
  <metadata
     id="metadata373">
    <rdf:RDF>
      <cc:Work
         rdf:about="">
        <dc:title>Asset 1</dc:title>
      </cc:Work>
    </rdf:RDF>
  </metadata>
</svg>
